<svg xmlns="http://www.w3.org/2000/svg" width="107" height="28" viewBox="0 0 107 28" fill="none" preserveAspectRatio="xMidYMid meet">
<g clip-path="url(#clip0_15703_893)">
<path d="M9.51415 20.3739L5.65329 14.2616L4.19174 15.8247V20.3739H0V0H4.19174V10.8567L9.10088 5.41478H14.1198L8.49401 11.3034L14.3128 20.3739H9.51415Z" fill="#000000"/>
<path d="M28.572 14.3734H18.2855C18.6988 16.2992 20.023 17.3038 21.8978 17.3038C23.3045 17.3038 24.3246 16.8571 25.4827 15.7691L27.882 17.918C26.5029 19.6486 24.5175 20.7087 21.8422 20.7087C17.402 20.7087 14.1205 17.5553 14.1205 12.9777V12.9221C14.1205 8.65226 17.1267 5.1355 21.4283 5.1355C26.3649 5.1355 28.6262 9.01491 28.6262 13.257V13.3126C28.6262 13.7308 28.5987 13.9823 28.5713 14.3727L28.572 14.3734ZM21.429 8.53971C19.6914 8.53971 18.5608 9.7958 18.2299 11.7216H24.5457C24.2971 9.82359 23.1939 8.53971 21.429 8.53971Z" fill="#000000"/>
<path d="M44.4149 14.3734H34.1285C34.5417 16.2992 35.866 17.3038 37.7408 17.3038C39.1474 17.3038 40.1676 16.8571 41.3257 15.7691L43.725 17.918C42.3458 19.6486 40.3605 20.7087 37.6852 20.7087C33.2449 20.7087 29.9635 17.5553 29.9635 12.9777V12.9221C29.9635 8.65226 32.9697 5.1355 37.2712 5.1355C42.2078 5.1355 44.4691 9.01491 44.4691 13.257V13.3126C44.4691 13.7308 44.4417 13.9823 44.4142 14.3727L44.4149 14.3734ZM37.2719 8.53971C35.5344 8.53971 34.4037 9.7958 34.0728 11.7216H40.3886C40.1401 9.82359 39.0369 8.53971 37.2719 8.53971Z" fill="#000000"/>
<path d="M54.5339 20.6525C52.3 20.6525 50.9208 19.6201 49.9282 18.4196V27.9486H45.7364V5.41411H49.9282V7.56293C50.949 6.1679 52.3549 5.13483 54.5339 5.13483C57.9808 5.13483 61.2629 7.87001 61.2629 12.8659V12.9214C61.2629 17.9173 58.0364 20.6525 54.5339 20.6525ZM57.0712 12.8659C57.0712 10.3822 55.4167 8.73565 53.4581 8.73565C51.4996 8.73565 49.8732 10.3822 49.8732 12.8659V12.9214C49.8732 15.4051 51.5002 17.0524 53.4581 17.0524C55.416 17.0524 57.0712 15.4336 57.0712 12.9214V12.8659Z" fill="#000000"/>
<path d="M70.5299 20.7087C66.0897 20.7087 62.8357 17.2482 62.8357 12.9777V12.9221C62.8357 8.65226 66.0622 5.1355 70.5848 5.1355C73.3699 5.1355 75.1075 6.08451 76.4866 7.64767L73.9219 10.4384C72.9841 9.43384 72.0464 8.7919 70.5574 8.7919C68.4615 8.7919 66.9725 10.6621 66.9725 12.8665V12.9221C66.9725 15.2106 68.434 17.053 70.7228 17.053C72.1294 17.053 73.0947 16.4389 74.1148 15.4621L76.569 17.9742C75.1349 19.5652 73.4805 20.7094 70.5299 20.7094V20.7087Z" fill="#000000"/>
<path d="M102.798 20.3739V0H106.99V20.3739H102.798Z" fill="#000000"/>
<path d="M81.0498 13.5967C81.0498 11.1672 83.0028 9.19068 85.4035 9.19068C87.2557 9.19068 88.8367 10.369 89.4648 12.0217L92.4305 9.02047C90.9408 6.68546 88.3479 5.1355 85.4028 5.1355C80.7923 5.1355 77.0413 8.93154 77.0413 13.5974C77.0413 16.5778 78.5729 19.2012 80.8802 20.7094L83.8459 17.7082C82.2127 17.0725 81.0484 15.4718 81.0484 13.5981L81.0498 13.5967Z" fill="#000000"/>
<path d="M96.6394 12.2468C96.6394 14.6763 94.6863 16.6528 92.2857 16.6528C90.4335 16.6528 88.8525 15.4746 88.2243 13.8218L85.2587 16.8231C86.7484 19.1581 89.3413 20.708 92.2863 20.708C96.8968 20.708 100.648 16.912 100.648 12.2461C100.648 9.2657 99.1163 6.64237 96.809 5.13409L93.8433 8.13536C95.4765 8.77104 96.6408 10.3717 96.6408 12.2454L96.6394 12.2468Z" fill="#000000"/>
<path d="M54.5215 28.0002C54.3945 28.0002 54.2641 27.9877 54.1295 27.9627C53.995 27.9377 53.8707 27.9078 53.7554 27.8717C53.64 27.8363 53.5494 27.8022 53.4821 27.7689L53.5494 27.1527C53.6538 27.2041 53.7629 27.2513 53.8762 27.2951C53.9895 27.3388 54.1062 27.3743 54.2256 27.4014C54.3451 27.4285 54.4659 27.4424 54.5881 27.4424C54.7405 27.4424 54.8627 27.4125 54.9554 27.352C55.048 27.2916 55.094 27.1992 55.094 27.0755C55.094 26.9804 55.068 26.9039 55.0158 26.8456C54.9636 26.7872 54.8833 26.7351 54.7762 26.6893C54.6684 26.6434 54.5311 26.5906 54.3643 26.5316C54.1968 26.4725 54.0471 26.4058 53.914 26.3308C53.7808 26.2557 53.6757 26.1613 53.5982 26.0466C53.5206 25.932 53.4815 25.7854 53.4815 25.6069C53.4815 25.4283 53.524 25.2755 53.6091 25.1393C53.6943 25.0024 53.8213 24.8955 53.9908 24.8176C54.1604 24.7398 54.3712 24.7009 54.6238 24.7009C54.8146 24.7009 54.9966 24.7225 55.1702 24.7655C55.3432 24.8086 55.4908 24.8552 55.6137 24.9052L55.5554 25.4992C55.3789 25.4193 55.2142 25.3581 55.0597 25.3172C54.9053 25.2755 54.748 25.2546 54.5881 25.2546C54.4281 25.2546 54.2915 25.2824 54.2009 25.3387C54.1096 25.3943 54.0643 25.4783 54.0643 25.5902C54.0643 25.6791 54.0897 25.7514 54.1405 25.8056C54.1913 25.8597 54.2634 25.9063 54.3574 25.9452C54.4515 25.9841 54.5641 26.0244 54.6959 26.0668C54.9231 26.139 55.1133 26.2189 55.2677 26.3058C55.4222 26.3926 55.5389 26.4975 55.6171 26.6205C55.6954 26.7435 55.7345 26.8956 55.7345 27.0769C55.7345 27.1679 55.7201 27.2659 55.692 27.3729C55.6638 27.4792 55.6075 27.5799 55.5238 27.6751C55.44 27.7703 55.3185 27.8488 55.1579 27.9099C54.9972 27.9711 54.7851 28.0016 54.5208 28.0016L54.5215 28.0002Z" fill="#000000"/>
<path d="M58.1174 28C57.8187 28 57.5531 27.9319 57.3203 27.7951C57.0876 27.6582 56.9043 27.4665 56.7718 27.2191C56.6393 26.9725 56.5728 26.6828 56.5728 26.35C56.5728 26.0172 56.6393 25.7282 56.7718 25.4809C56.9043 25.2336 57.0876 25.0418 57.3203 24.905C57.5531 24.7681 57.8187 24.7 58.1174 24.7C58.416 24.7 58.6817 24.7681 58.9144 24.905C59.1471 25.0418 59.3304 25.2336 59.4629 25.4809C59.5954 25.7275 59.662 26.0172 59.662 26.35C59.662 26.6828 59.5954 26.9718 59.4629 27.2191C59.3304 27.4665 59.1471 27.6582 58.9144 27.7951C58.6817 27.9319 58.416 28 58.1174 28ZM58.1174 27.438C58.3268 27.438 58.5011 27.3907 58.6412 27.2976C58.7812 27.2038 58.8869 27.0753 58.957 26.9114C59.027 26.7474 59.062 26.5605 59.062 26.3507C59.062 26.1409 59.027 25.954 58.957 25.7901C58.8869 25.6261 58.7812 25.4976 58.6412 25.4038C58.5011 25.31 58.3261 25.2634 58.1174 25.2634C57.9087 25.2634 57.7336 25.3107 57.5936 25.4038C57.4535 25.4976 57.3478 25.6261 57.2778 25.7901C57.2078 25.954 57.1728 26.1409 57.1728 26.3507C57.1728 26.5605 57.2078 26.7474 57.2778 26.9114C57.3478 27.0753 57.4535 27.2038 57.5936 27.2976C57.7336 27.3914 57.9087 27.438 58.1174 27.438Z" fill="#000000"/>
<path d="M62.1341 28C61.8162 28 61.5361 27.9319 61.2945 27.7951C61.0528 27.6582 60.864 27.4665 60.7288 27.2191C60.5936 26.9725 60.5263 26.6828 60.5263 26.35C60.5263 26.0172 60.5963 25.7282 60.7357 25.4809C60.875 25.2336 61.0673 25.0418 61.3123 24.905C61.5574 24.7681 61.8368 24.7 62.1519 24.7C62.3174 24.7 62.4691 24.7181 62.6064 24.7535C62.7437 24.7889 62.8624 24.8334 62.9627 24.8862L62.9002 25.4392C62.7869 25.3864 62.6702 25.3426 62.5494 25.3093C62.4293 25.2753 62.2954 25.2586 62.1471 25.2586C61.9274 25.2586 61.7448 25.3051 61.5972 25.3989C61.4503 25.4927 61.3391 25.6219 61.265 25.7866C61.1901 25.9512 61.1531 26.1395 61.1531 26.3507C61.1531 26.5619 61.1894 26.7502 61.2629 26.9148C61.3357 27.0795 61.4455 27.2087 61.591 27.3025C61.7366 27.3963 61.9178 27.4428 62.1341 27.4428C62.2851 27.4428 62.4196 27.4262 62.5391 27.3928C62.6585 27.3595 62.7787 27.3157 62.8995 27.2615L62.962 27.8145C62.8439 27.8701 62.7148 27.9153 62.5734 27.9493C62.4327 27.9833 62.2858 28 62.1334 28H62.1341Z" fill="#000000"/>
<path d="M63.9924 27.9361V24.7639H64.5656V27.9361H63.9924Z" fill="#000000"/>
<path d="M66.7871 25.3309H66.9347L66.0299 27.9368H65.4745L66.5894 24.7646H67.1311L68.2459 27.9368H67.6906L66.7858 25.3309H66.7871ZM67.5169 27.1844H66.205V26.6766H67.5169V27.1844Z" fill="#000000"/>
<path d="M69.1562 27.9361V24.7639H69.7294V27.4199H71.0194V27.9368H69.1562V27.9361Z" fill="#000000"/>
<path d="M74.4127 28C74.2857 28 74.1553 27.9875 74.0207 27.9625C73.8862 27.9375 73.7619 27.9076 73.6466 27.8715C73.5313 27.836 73.4407 27.802 73.3734 27.7686L73.4407 27.1524C73.545 27.2038 73.6542 27.2511 73.7674 27.2948C73.8807 27.3386 73.9974 27.374 74.1168 27.4011C74.2363 27.4282 74.3571 27.4421 74.4793 27.4421C74.6317 27.4421 74.7539 27.4122 74.8466 27.3518C74.9393 27.2914 74.9853 27.199 74.9853 27.0753C74.9853 26.9801 74.9592 26.9037 74.907 26.8453C74.8548 26.787 74.7745 26.7349 74.6674 26.689C74.5596 26.6432 74.4223 26.5904 74.2555 26.5313C74.088 26.4723 73.9384 26.4056 73.8052 26.3305C73.672 26.2555 73.567 26.161 73.4894 26.0464C73.4118 25.9318 73.3727 25.7852 73.3727 25.6066C73.3727 25.4281 73.4153 25.2752 73.5004 25.1391C73.5855 25.0022 73.7125 24.8952 73.8821 24.8174C74.0516 24.7396 74.2624 24.7007 74.515 24.7007C74.7059 24.7007 74.8878 24.7222 75.0615 24.7653C75.2345 24.8084 75.3821 24.8549 75.5049 24.9049L75.4466 25.4989C75.2702 25.419 75.1054 25.3579 74.9509 25.3169C74.7965 25.2752 74.6393 25.2544 74.4793 25.2544C74.3194 25.2544 74.1828 25.2822 74.0921 25.3385C74.0008 25.394 73.9555 25.4781 73.9555 25.5899C73.9555 25.6789 73.9809 25.7511 74.0317 25.8053C74.0825 25.8595 74.1546 25.9061 74.2487 25.945C74.3427 25.9839 74.4553 26.0242 74.5871 26.0665C74.8143 26.1388 75.0045 26.2187 75.1589 26.3055C75.3134 26.3924 75.4301 26.4973 75.5084 26.6202C75.5866 26.7432 75.6258 26.8954 75.6258 27.0767C75.6258 27.1677 75.6113 27.2657 75.5832 27.3726C75.5551 27.4789 75.4988 27.5797 75.415 27.6749C75.3313 27.77 75.2097 27.8485 75.0491 27.9097C74.8885 27.9708 74.6763 28.0014 74.412 28.0014L74.4127 28Z" fill="#000000"/>
<path d="M76.6521 27.9361V24.7639H77.7669C78.0072 24.7639 78.2104 24.8 78.3759 24.873C78.5413 24.9452 78.6669 25.0571 78.7534 25.2085C78.8393 25.36 78.8818 25.5531 78.8818 25.7887C78.8818 26.0242 78.8392 26.2243 78.7541 26.3792C78.669 26.5341 78.5441 26.6487 78.38 26.7238C78.2159 26.7988 78.0155 26.8356 77.78 26.8356H77.2246V27.9368H76.6514L76.6521 27.9361ZM77.2253 26.35H77.7134C77.909 26.35 78.0553 26.3055 78.1534 26.2166C78.2509 26.1277 78.3003 25.988 78.3003 25.7977C78.3003 25.6073 78.2509 25.4684 78.1514 25.3808C78.0518 25.2933 77.9015 25.2495 77.7003 25.2495H77.226V26.3507L77.2253 26.35Z" fill="#000000"/>
<path d="M81.2289 28C80.9303 28 80.6646 27.9319 80.4319 27.7951C80.1992 27.6582 80.0159 27.4665 79.8834 27.2191C79.7509 26.9725 79.6843 26.6828 79.6843 26.35C79.6843 26.0172 79.7509 25.7282 79.8834 25.4809C80.0159 25.2336 80.1992 25.0418 80.4319 24.905C80.6646 24.7681 80.9303 24.7 81.2289 24.7C81.5276 24.7 81.7932 24.7681 82.026 24.905C82.2587 25.0418 82.442 25.2336 82.5745 25.4809C82.707 25.7275 82.7736 26.0172 82.7736 26.35C82.7736 26.6828 82.707 26.9718 82.5745 27.2191C82.442 27.4665 82.2587 27.6582 82.026 27.7951C81.7932 27.9319 81.5276 28 81.2289 28ZM81.2289 27.438C81.4383 27.438 81.6127 27.3907 81.7527 27.2976C81.8928 27.2038 81.9985 27.0753 82.0685 26.9114C82.1385 26.7474 82.1736 26.5605 82.1736 26.3507C82.1736 26.1409 82.1385 25.954 82.0685 25.7901C81.9985 25.6261 81.8928 25.4976 81.7527 25.4038C81.6127 25.31 81.4376 25.2634 81.2289 25.2634C81.0202 25.2634 80.8452 25.3107 80.7051 25.4038C80.5651 25.4976 80.4594 25.6261 80.3894 25.7901C80.3193 25.954 80.2843 26.1409 80.2843 26.3507C80.2843 26.5605 80.3193 26.7474 80.3894 26.9114C80.4594 27.0753 80.5651 27.2038 80.7051 27.2976C80.8452 27.3914 81.0202 27.438 81.2289 27.438Z" fill="#000000"/>
<path d="M83.826 27.9361V24.7639H84.9724C85.1887 24.7639 85.3781 24.7987 85.5401 24.8681C85.7022 24.9376 85.8278 25.0432 85.9177 25.1856C86.0076 25.3273 86.0523 25.5073 86.0523 25.7247C86.0523 25.9575 86.0035 26.1423 85.9053 26.2791C85.8079 26.416 85.6788 26.5244 85.5189 26.6043L86.2266 27.9368H85.5861L84.9813 26.7585H84.3992V27.9368H83.826V27.9361ZM84.3992 26.2729H84.82C85.0562 26.2729 85.2202 26.2243 85.3129 26.127C85.4056 26.0297 85.4516 25.9061 85.4516 25.7567C85.4516 25.5983 85.4063 25.4739 85.315 25.3836C85.2237 25.294 85.0665 25.2488 84.8427 25.2488H84.3992V26.2729Z" fill="#000000"/>
<path d="M87.7582 27.9361V25.326H86.8713V24.7639H89.2177V25.326H88.3307V27.9361H87.7575H87.7582Z" fill="#000000"/>
<path d="M91.0898 28C90.9628 28 90.8323 27.9875 90.6978 27.9625C90.5632 27.9375 90.439 27.9076 90.3236 27.8715C90.2083 27.836 90.1177 27.802 90.0504 27.7686L90.1177 27.1524C90.222 27.2038 90.3312 27.2511 90.4445 27.2948C90.5577 27.3386 90.6744 27.374 90.7939 27.4011C90.9133 27.4282 91.0342 27.4421 91.1564 27.4421C91.3088 27.4421 91.431 27.4122 91.5236 27.3518C91.6163 27.2914 91.6623 27.199 91.6623 27.0753C91.6623 26.9801 91.6362 26.9037 91.584 26.8453C91.5319 26.787 91.4516 26.7349 91.3445 26.689C91.2367 26.6432 91.0994 26.5904 90.9326 26.5313C90.7651 26.4723 90.6154 26.4056 90.4822 26.3305C90.349 26.2555 90.244 26.161 90.1664 26.0464C90.0889 25.9318 90.0497 25.7852 90.0497 25.6066C90.0497 25.4281 90.0923 25.2752 90.1774 25.1391C90.2625 25.0022 90.3895 24.8952 90.5591 24.8174C90.7287 24.7396 90.9394 24.7007 91.1921 24.7007C91.3829 24.7007 91.5648 24.7222 91.7385 24.7653C91.9115 24.8084 92.0591 24.8549 92.182 24.9049L92.1236 25.4989C91.9472 25.419 91.7824 25.3579 91.628 25.3169C91.4735 25.2752 91.3163 25.2544 91.1564 25.2544C90.9964 25.2544 90.8598 25.2822 90.7692 25.3385C90.6779 25.394 90.6326 25.4781 90.6326 25.5899C90.6326 25.6789 90.658 25.7511 90.7088 25.8053C90.7596 25.8595 90.8316 25.9061 90.9257 25.945C91.0197 25.9839 91.1323 26.0242 91.2641 26.0665C91.4914 26.1388 91.6815 26.2187 91.836 26.3055C91.9905 26.3924 92.1072 26.4973 92.1854 26.6202C92.2637 26.7432 92.3028 26.8954 92.3028 27.0767C92.3028 27.1677 92.2884 27.2657 92.2603 27.3726C92.2321 27.4789 92.1758 27.5797 92.0921 27.6749C92.0083 27.77 91.8868 27.8485 91.7262 27.9097C91.5655 27.9708 91.3534 28.0014 91.0891 28.0014L91.0898 28Z" fill="#000000"/>
<path d="M96.3064 28C95.9886 28 95.7085 27.9319 95.4669 27.7951C95.2252 27.6582 95.0364 27.4665 94.9012 27.2191C94.766 26.9725 94.6987 26.6828 94.6987 26.35C94.6987 26.0172 94.7687 25.7282 94.9081 25.4809C95.0474 25.2336 95.2396 25.0418 95.4847 24.905C95.7298 24.7681 96.0092 24.7 96.3243 24.7C96.4897 24.7 96.6415 24.7181 96.7788 24.7535C96.9161 24.7889 97.0348 24.8334 97.135 24.8862L97.0726 25.4392C96.9593 25.3864 96.8426 25.3426 96.7218 25.3093C96.6016 25.2753 96.4678 25.2586 96.3195 25.2586C96.0998 25.2586 95.9172 25.3051 95.7696 25.3989C95.6227 25.4927 95.5115 25.6219 95.4373 25.7866C95.3625 25.9512 95.3254 26.1395 95.3254 26.3507C95.3254 26.5619 95.3618 26.7502 95.4353 26.9148C95.5081 27.0795 95.6179 27.2087 95.7634 27.3025C95.909 27.3963 96.0902 27.4428 96.3064 27.4428C96.4575 27.4428 96.592 27.4262 96.7115 27.3928C96.8309 27.3595 96.9511 27.3157 97.0719 27.2615L97.1344 27.8145C97.0163 27.8701 96.8872 27.9153 96.7458 27.9493C96.6051 27.9833 96.4582 28 96.3058 28H96.3064Z" fill="#000000"/>
<path d="M98.1648 27.9361V24.7639H98.738V27.4199H100.028V27.9368H98.1648V27.9361Z" fill="#000000"/>
<path d="M102.168 28C101.875 28 101.632 27.941 101.439 27.8236C101.247 27.7055 101.104 27.5401 101.01 27.3275C100.916 27.1143 100.87 26.8641 100.87 26.5772V24.7646H101.443V26.4278C101.443 26.5793 101.452 26.7169 101.472 26.8412C101.491 26.9656 101.527 27.0733 101.578 27.1629C101.63 27.2525 101.703 27.322 101.798 27.3699C101.894 27.4185 102.017 27.4422 102.168 27.4422C102.318 27.4422 102.442 27.4179 102.537 27.3699C102.633 27.3213 102.706 27.2525 102.757 27.1629C102.809 27.0733 102.845 26.9656 102.864 26.8412C102.883 26.7169 102.893 26.5786 102.893 26.4278V24.7646H103.466V26.5772C103.466 26.8641 103.419 27.1143 103.325 27.3275C103.231 27.5408 103.088 27.7062 102.897 27.8236C102.705 27.9417 102.462 28 102.168 28H102.168Z" fill="#000000"/>
<path d="M104.671 27.9361V24.7639H105.854C106.157 24.7639 106.381 24.8292 106.528 24.9598C106.675 25.0904 106.749 25.2808 106.749 25.5295C106.749 25.715 106.708 25.8706 106.624 25.995C106.541 26.1193 106.417 26.2104 106.252 26.268V26.1589C106.502 26.2131 106.69 26.3132 106.814 26.4577C106.938 26.6029 107 26.7946 107 27.0336C107 27.3192 106.909 27.5408 106.727 27.6985C106.545 27.8562 106.296 27.9354 105.979 27.9354H104.671V27.9361ZM105.245 26.0103H105.768C105.907 26.0103 106.011 25.9818 106.081 25.9241C106.15 25.8665 106.185 25.7748 106.185 25.6476C106.185 25.5205 106.15 25.4218 106.081 25.3656C106.011 25.3086 105.907 25.2808 105.768 25.2808H105.245V26.0103ZM105.245 27.4199H105.894C106.051 27.4199 106.176 27.3872 106.269 27.3226C106.362 27.2573 106.409 27.1406 106.409 26.9711C106.409 26.8016 106.359 26.6821 106.261 26.6196C106.162 26.5577 106.04 26.5265 105.894 26.5265H105.245V27.4192V27.4199Z" fill="#000000"/>
</g>
<defs>
<clipPath id="clip0_15703_893">
<rect width="107" height="28" fill="#000000"/>
</clipPath>
</defs>
</svg>